
        <svg xmlns="http://www.w3.org/2000/svg" xmlns:xlink="http://www.w3.org/1999/xlink" version="1.1" width="2492.8297643929855" 
        height="3176.7260133706645" viewBox="0 0 2492.8297643929855 3176.7260133706645">
			<rect fill="#07000a" width="2492.8297643929855" height="3176.7260133706645"/>
			<g transform="scale(8.836300668533235) translate(10, 10)">
				<defs id="SvgjsDefs1236"><linearGradient id="SvgjsLinearGradient1245"><stop id="SvgjsStop1246" stop-color="#945f50" offset="0"></stop><stop id="SvgjsStop1247" stop-color="#fcc5b3" offset="0.5"></stop><stop id="SvgjsStop1248" stop-color="#945f50" offset="1"></stop></linearGradient><linearGradient id="SvgjsLinearGradient1249"><stop id="SvgjsStop1250" stop-color="#905e26" offset="0"></stop><stop id="SvgjsStop1251" stop-color="#f5ec9b" offset="0.5"></stop><stop id="SvgjsStop1252" stop-color="#905e26" offset="1"></stop></linearGradient><linearGradient id="SvgjsLinearGradient1253"><stop id="SvgjsStop1254" stop-color="#905e26" offset="0"></stop><stop id="SvgjsStop1255" stop-color="#f5ec9b" offset="0.5"></stop><stop id="SvgjsStop1256" stop-color="#905e26" offset="1"></stop></linearGradient><linearGradient id="SvgjsLinearGradient1257"><stop id="SvgjsStop1258" stop-color="#905e26" offset="0"></stop><stop id="SvgjsStop1259" stop-color="#f5ec9b" offset="0.5"></stop><stop id="SvgjsStop1260" stop-color="#905e26" offset="1"></stop></linearGradient></defs><g id="SvgjsG1237" featureKey="symbolContainer" transform="matrix(1,0,0,1,69,0)" fill="url(#SvgjsLinearGradient1245)"><rect y="0" height="1" width="1" opacity="0"></rect><rect y="235" width="124" height="5"></rect></g><g id="SvgjsG1238" featureKey="monogramFeature-0" transform="matrix(3.5654268057826997,0,0,3.5654268057826997,86.54190185659934,-51.31185140497543)" fill="url(#SvgjsLinearGradient1249)"><path d="M3.66 51.9 c-0.06 0 -0.06 0.06 -0.06 0.12 c-0.06 0 -0.06 0.06 -0.06 0.12 c0.06 0 0.06 -0.06 0.06 -0.12 c0.06 0 0.06 -0.06 0.06 -0.12 c0.3 0 0.42 -0.18 0.6 -0.3 c0.42 -0.18 0.66 -0.54 1.02 -0.84 c0.84 -0.66 1.8 -1.26 2.58 -1.98 c0.42 -0.42 0.84 -1.02 1.44 -1.26 c0.06 -0.18 0.18 -0.3 0.18 -0.42 c2.4 -2.28 4.5 -4.8 6.66 -7.26 c0 -0.48 0.36 -0.66 0.66 -0.84 c-0.48 1.2 -1.38 1.86 -1.98 2.88 c-0.6 0.3 -0.66 1.14 -1.32 1.32 c-0.06 0.42 -0.36 0.48 -0.42 0.78 c-0.18 0 -0.18 0.12 -0.3 0.12 c-2.4 2.94 -5.1 5.52 -7.98 7.98 c-0.42 0.3 -0.84 0.48 -1.14 0.84 c0.48 -0.12 0.84 -0.48 1.14 -0.84 c1.02 -0.6 1.98 -1.32 2.64 -2.22 c0.36 0 0.36 -0.24 0.54 -0.42 c0.12 -0.12 0.12 0 0.18 0 c0.3 -0.18 0.66 -0.66 1.08 -1.02 c0.84 -0.84 1.5 -1.38 1.92 -2.28 c0.78 -0.42 1.2 -1.14 1.68 -1.86 c0.12 0 0.12 -0.06 0.3 -0.06 c1.38 -1.68 2.64 -3.3 4.02 -4.98 l0 -0.24 c0.3 -0.06 0.42 -0.42 0.54 -0.72 c0.42 -0.24 0.66 -0.6 0.84 -1.08 c0.84 -0.9 1.5 -1.98 2.16 -3 c0.18 -0.24 0.48 -0.36 0.48 -0.78 c-0.18 0.3 -0.42 0.42 -0.48 0.78 c-0.96 1.02 -1.68 2.22 -2.58 3.18 c0 -0.42 0.66 -0.84 0.84 -1.5 c0.12 0 0.12 -0.06 0.36 0 c0.36 -1.14 1.14 -1.8 1.68 -2.7 c0.06 0 0.06 0.06 0.12 0.06 c-0.06 -0.3 0.36 -0.66 0.6 -0.84 c-0.06 -0.24 0.12 -0.24 0.06 -0.48 c0.84 -0.84 1.2 -2.16 2.22 -2.94 c0.72 -1.8 1.8 -3.18 2.58 -4.98 c-0.36 -0.6 -1.08 0.18 -1.5 0.06 c0.36 -1.26 1.5 -2.34 2.4 -3.36 l0.12 0 c0.78 0.54 1.8 0.9 2.28 1.74 c-0.48 3.42 -2.4 5.58 -3.78 8.1 c0.24 -0.84 0.78 -1.38 1.14 -2.16 c-1.14 1.44 -1.86 2.82 -2.88 4.32 l-0.24 0 c0 0.12 0 0.18 0.12 0.18 c-0.18 0.3 -0.3 0.66 -0.66 0.78 c-0.06 0.18 -0.06 0.12 0 0.3 c-1.08 1.38 -2.1 2.76 -3.06 4.26 c-0.12 0.06 -0.18 0 -0.36 0.12 c-0.12 0.42 -0.3 0.84 -0.72 0.96 c-0.96 1.68 -2.16 3.12 -3.42 4.5 l0 0.18 c-0.72 0.54 -1.08 1.44 -1.92 1.92 c-0.96 1.56 -2.52 2.64 -3.6 4.02 c-0.18 -0.06 -0.18 0.12 -0.36 0.12 c-1.08 1.38 -2.58 2.46 -3.96 3.54 c-0.42 0.6 -1.2 0.84 -1.68 1.32 c0.66 0.36 1.08 0.66 1.98 0.9 c0.42 0.42 1.26 0.48 1.62 0.96 c0.66 0.3 1.44 0.48 1.86 1.08 c-0.3 0.18 -0.48 -0.06 -0.54 -0.3 c-0.18 0.06 -0.18 0.24 -0.3 0.24 c0 0.12 0.24 0.12 0.18 0.36 c0.24 -0.18 0.24 0.18 0.48 0.24 c0.3 0 0.24 -0.42 0.3 -0.6 c0.12 0.24 0 0.48 0 0.72 c0 0.06 0.3 0.3 0.36 0.12 c0.48 0.6 1.38 0.84 1.92 1.44 c0.12 0 0.12 -0.18 0.36 -0.12 c0.42 0.36 0.6 0.6 1.2 0.78 c0 0.24 0.18 0.48 0.42 0.66 c1.56 0.78 2.7 2.04 4.32 2.58 c0.42 0.6 1.38 0.72 1.74 1.44 c0.54 0.12 0.66 0.66 1.2 0.84 c-0.12 -0.36 -0.78 -1.2 -1.2 -1.2 c0 -0.6 -1.02 -0.66 -1.08 -1.38 c-0.12 0.06 -0.18 0.12 -0.18 0.24 c-0.06 -0.18 -0.24 -0.48 -0.12 -0.6 c0.42 0.06 0.96 0.36 0.78 0.78 c0.18 0.06 0.12 -0.12 0.24 -0.18 c0.06 0 0.06 0.12 0.06 0.24 c1.2 0.42 1.74 1.32 2.52 2.1 c-0.06 0.24 0.06 0.36 0.12 0.54 c-0.36 0.78 -0.36 1.44 -0.42 2.46 c-0.24 0 -0.36 0.24 -0.6 0.42 c-0.3 -0.12 -0.54 0.06 -0.96 0.12 c-0.06 -0.36 -0.6 -0.36 -0.66 -0.78 c0.48 -0.78 -0.12 -1.02 -0.12 -1.86 c-0.54 -0.54 -1.02 -0.96 -1.68 -1.26 c0 -0.3 -0.18 -0.3 -0.12 -0.54 c-0.72 -0.66 -1.62 -1.26 -2.46 -1.86 c-0.18 0.36 0.48 0.36 0.42 0.84 c-0.48 -0.18 -0.66 -0.66 -1.14 -0.72 c0.12 -0.36 0.36 0 0.54 0 c0 -0.36 -0.48 -0.3 -0.54 -0.54 c-0.18 0.06 -0.3 0.12 -0.48 0.18 c-0.3 -0.6 -1.26 -0.36 -1.62 -1.14 c0.18 -0.12 0.36 0 0.48 0.06 c-0.3 -0.36 -0.9 -0.48 -1.32 -0.78 c0.06 0.42 0.6 0.3 0.66 0.72 c-0.3 0.06 -0.6 -0.24 -0.9 -0.36 c0 -0.18 0 -0.24 0.12 -0.3 c-0.3 -0.3 -0.72 -0.42 -1.08 -0.72 c-0.06 0.42 0.9 0.42 0.84 0.78 c-0.12 0.24 -0.72 -0.24 -0.84 -0.48 c-0.84 -0.12 -1.08 -0.6 -1.98 -0.84 c-1.02 -0.78 -2.52 -1.14 -3.66 -1.86 c-0.54 0.06 -0.84 -0.48 -1.26 -0.36 c-0.42 -0.54 -1.38 -0.48 -1.86 -0.78 c-0.36 0.24 -0.18 0.9 -0.54 1.14 c-0.36 2.4 -1.44 4.62 -1.74 6.96 c-0.3 0.48 -0.48 1.08 -0.54 1.74 c0.42 -0.42 0.72 -1.14 1.08 -1.62 c0.18 0.42 -0.72 1.14 -0.72 1.56 c0.3 -0.24 0.42 -0.6 0.66 -0.9 c-0.3 0.9 -0.36 2.04 -0.9 2.7 c0 0.18 0 0.24 0.12 0.3 c-0.06 0.12 -0.12 0.06 -0.24 0.06 c0.12 0.3 0 0.42 -0.12 0.66 c-0.3 -0.18 0.24 -0.48 -0.12 -0.54 c-0.3 0 -0.12 0.72 -0.42 0.54 c0 0.9 -0.54 1.68 -0.54 2.58 c0.48 -0.48 0.66 -1.32 0.96 -1.98 c0.3 1.08 -0.6 2.34 -0.42 3.54 c-0.42 0.6 -0.66 1.62 -0.96 2.34 c-0.18 0.18 -0.42 0.3 -0.42 0.6 c-0.3 -0.24 -0.36 0 -0.6 0.06 c-0.06 -0.36 -0.3 -0.24 -0.66 -0.36 c0.12 -0.3 -0.3 -0.24 -0.24 -0.6 c-0.12 0.06 -0.12 0.24 -0.3 0.18 c0 -0.36 -0.18 -0.48 -0.36 -0.84 c0.84 -4.02 1.68 -7.38 2.64 -11.46 c0.18 -0.06 0.48 -0.06 0.42 -0.42 c0.12 -0.06 0.18 -0.18 0.18 -0.36 c-0.06 0.12 -0.24 0.18 -0.18 0.36 c-0.06 0 -0.06 0.06 -0.12 0 c-0.42 -0.3 0.72 -1.98 0.54 -2.4 c0.36 -1.14 0.66 -1.92 0.84 -3.06 c0 -0.18 0.12 -0.24 0.18 -0.48 c-1.32 -0.54 -2.22 -1.92 -2.04 -3.6 c0.24 0.06 0.12 -0.18 0.36 -0.12 c0.12 -0.84 1.02 -1.62 1.8 -1.2 c0.36 -0.3 0.6 -0.06 1.08 -0.12 c-0.06 0.18 0 0.12 0.12 0.3 c0.18 -0.36 0.36 -0.72 0.42 -1.2 c0.3 0 0 0.24 0.06 0.36 c0.54 -0.24 0.36 -0.96 0.72 -1.62 c-0.54 0 -0.18 0.78 -0.6 0.9 c0.12 -0.42 0.18 -0.84 0.36 -1.26 c0.24 0 -0.06 0.12 0.12 0.24 c0.18 0 0.06 -0.36 0.18 -0.42 c-0.06 0 -0.12 0.06 -0.18 0.12 c-0.18 -0.12 0.12 -0.42 0.12 -0.6 c0.18 0.06 -0.06 0.18 0 0.3 c0.54 -0.36 0.72 -1.26 0.66 -1.8 c0.12 -0.12 0.18 -0.3 0.36 -0.48 c-0.18 -0.66 0.72 -1.5 0.48 -2.46 c-0.24 0.42 -0.06 1.08 -0.48 1.38 c0.06 -0.78 0.3 -1.5 0.66 -2.04 c0.06 0.36 -0.3 0.36 -0.12 0.6 c0.42 -0.3 0.3 -1.2 0.78 -1.5 c-0.06 -0.06 -0.36 -0.06 -0.36 -0.24 c0.12 -0.42 0.18 -0.84 0.48 -1.14 c-0.06 0.18 -0.06 0.42 -0.12 0.66 c0 0.12 0.36 -0.3 0.18 -0.42 c0 -0.12 0.12 -0.12 0.18 -0.12 c0.18 -1.26 0.78 -1.86 1.02 -3.18 c-0.18 0.42 -0.48 0.72 -0.54 1.2 c-0.42 0.54 -0.36 1.32 -0.78 1.8 c0.36 -1.14 0.48 -2.04 1.08 -2.88 c0.06 -1.26 0.9 -2.7 1.2 -4.2 c0.06 0 0 -0.24 0.36 -0.18 c-0.12 0.24 -0.3 0.42 -0.24 0.78 c0.24 -0.42 0.42 -0.9 0.54 -1.5 c-0.24 0.12 -0.24 0.42 -0.3 0.66 c-0.42 -0.18 0.06 -0.96 0.3 -1.2 c0 -0.84 0.54 -1.68 0.78 -2.58 c0.78 -3.06 1.86 -6.24 2.82 -9.42 c0.48 -0.54 0.6 -1.44 1.32 -1.86 c1.02 0.18 1.2 1.08 1.74 1.68 c-0.06 0.06 0 0.3 0 0.54 c-1.32 1.32 -1.68 3.6 -2.58 5.4 c-0.06 1.26 -0.72 2.1 -0.78 3.54 c-0.12 0 -0.12 0.24 -0.3 0.12 c-0.12 1.5 -0.9 2.94 -1.32 4.5 c-0.12 0 -0.06 0.24 -0.3 0.12 c0 0.18 0.12 0.24 0.12 0.36 c-0.3 0.9 -0.48 1.5 -0.72 2.28 l-0.12 0 c0 0.12 -0.06 0.3 0 0.3 c0 0.18 -0.18 0.18 -0.3 0.24 c0.12 0.84 -0.36 2.1 -0.9 2.94 c-0.06 1.26 -0.66 1.98 -0.78 3.12 c-0.12 0 -0.18 0.06 -0.24 0.06 c-0.3 2.22 -1.56 4.5 -2.04 6.84 c0.06 0.24 -0.24 0.06 -0.18 0.3 l0 0.12 z M27.72 27.3 c0.12 0.24 0.18 -0.24 0 0 l0 0 z M23.4 31.56 c0.06 -0.18 0.36 -0.48 0.06 -0.48 c0.06 0.18 -0.3 0.3 -0.06 0.48 z M22.38 31.74 c0 -0.06 0.3 -0.18 0.06 -0.3 c0 0.12 -0.3 0.24 -0.06 0.3 z M8.1 31.8 c0.06 0.24 0.06 -0.24 0 0 l0 0 z M22.8 32.46 c0 -0.3 0.48 -0.48 0.3 -0.72 c-0.12 0.18 -0.48 0.48 -0.3 0.72 z M7.98 31.98 c0.06 0.06 0 0 0 0 l0 0 z M7.62 33.3 c0.18 -0.12 0.06 -0.54 0.3 -0.84 c-0.24 0.06 -0.42 0.66 -0.3 0.84 z M22.14 33.3 c-0.06 -0.06 -0.24 0.18 -0.06 0.24 c0 -0.12 0.06 -0.12 0.06 -0.24 c0.18 -0.24 0.48 -0.42 0.6 -0.78 c-0.36 0.06 -0.48 0.48 -0.6 0.78 z M21.3 33.24 c0.12 0 0 0.18 0.12 0.18 c-0.06 -0.24 0.18 -0.18 0.18 -0.42 c-0.12 0.06 -0.24 0.18 -0.3 0.24 z M7.44 33.78 c0 -0.06 0 -0.12 0.06 -0.18 l-0.06 0 c-0.12 0.12 -0.12 0.18 0 0.18 z M21.12 34.92 c0.06 -0.42 0.6 -0.54 0.48 -0.9 c-0.12 0.3 -0.66 0.54 -0.48 0.9 z M20.7 35.28 c-0.06 0 -0.06 0.12 -0.06 0.12 c-0.42 0.12 -0.3 0.54 -0.66 0.54 c-0.96 1.68 -2.1 3.12 -3.3 4.38 c-0.42 0.54 -0.6 1.14 -1.26 1.5 c-0.18 0.96 -1.2 1.26 -1.5 2.1 c-1.14 0.78 -1.8 2.16 -3 3 c0.06 0.36 -0.36 0.3 -0.3 0.66 c-0.54 0.3 -0.9 0.84 -1.32 1.26 c-0.3 0.12 -0.84 0.54 -0.54 0.78 c4.32 -4.32 8.34 -9 11.88 -14.22 c0.06 0 0 -0.06 0.06 -0.12 s0.06 -0.18 0.24 -0.24 c-0.18 -0.12 -0.3 0.06 -0.24 0.24 z M7.44 35.34 c0 0 0 0.06 0.06 0.06 c0 -0.06 0 -0.18 -0.06 -0.18 l0 0.12 z M6.42 36.72 c0.24 -0.18 0.54 -0.96 0.36 -1.2 c-0.12 0.36 -0.24 0.84 -0.36 1.2 z M7.32 35.76 c0.12 0.24 0.12 -0.24 0 0 l0 0 z M7.32 35.88 c-0.06 0 -0.12 0 -0.12 0.06 c0.06 0 0.12 0 0.12 -0.06 z M7.44 36.42 c0 0.06 -0.12 0 -0.12 0.12 c0.06 -0.06 0.12 0 0.12 -0.12 z M6.9 36.66 c0.12 0.24 0.18 -0.18 0 0 l0 0 z M7.2 36.96 c0.12 0.24 0.18 -0.3 0 0 l0 0 z M20.04 37.2 c-0.24 0 0.06 0.24 0 0 c0.06 -0.06 0.06 -0.18 0.06 -0.24 c-0.06 -0.06 -0.06 0.12 -0.06 0.24 z M6.18 37.5 c0.24 0 0.3 -0.36 0.12 -0.48 c-0.12 0.18 -0.06 0.3 -0.12 0.48 z M6.6 37.98 c0 -0.24 0.48 -0.66 0.18 -0.78 c0.06 0.36 -0.42 0.54 -0.18 0.78 z M6.9 37.62 l0.18 0 c0.06 -0.12 0.06 -0.18 -0.12 -0.24 c0 0.12 0 0.18 -0.06 0.24 z M5.88 38.64 c0.06 -0.18 0.48 -0.72 0.24 -0.78 c-0.06 0.24 -0.36 0.6 -0.24 0.78 z M6.42 38.52 c0.06 -0.12 0.18 -0.18 0.18 -0.36 c-0.18 -0.06 -0.36 0.3 -0.18 0.36 z M6.18 39.24 c0.06 -0.18 0.12 -0.3 0.24 -0.54 c-0.3 0 -0.36 0.48 -0.24 0.54 z M7.2 39.06 l0 0.12 c0.18 0.12 0.18 -0.18 0.06 -0.18 c0 0.06 0 0.12 -0.06 0.06 z M6 39.6 c-0.06 0.06 0 0.12 0 0 c0.12 -0.06 0 -0.06 0 0 z M5.82 40.26 c0.24 0.12 0.18 -0.42 0.06 -0.42 c0.06 0.24 -0.06 0.24 -0.06 0.42 z M6.9 40.38 c0.06 -0.06 0.18 -0.42 0 -0.48 c0.12 0.24 -0.12 0.42 0 0.48 z M5.4 41.34 c0.3 -0.12 0.24 -0.72 0.42 -1.02 c-0.42 0.06 -0.18 0.72 -0.42 1.02 z M6.54 40.5 c0.06 0 -0.06 -0.06 0 0 l0 0 z M5.88 41.28 c0 0 0 -0.06 0.06 -0.06 c0 0 0 -0.12 -0.12 -0.06 c0 0.06 0 0.12 0.06 0.12 z M5.22 41.94 c0.3 0 0.06 -0.24 0.24 -0.42 c-0.24 -0.06 -0.12 0.3 -0.24 0.42 z M5.58 42.18 c-0.12 -0.3 0.12 -0.3 0.18 -0.54 c-0.24 0 -0.42 0.48 -0.18 0.54 z M3.54 47.52 c0.06 0.18 0.42 -0.12 0.24 -0.24 c-0.06 0.18 -0.24 0.06 -0.24 0.24 c0.36 -1.68 1.26 -3.66 1.62 -5.4 c-1.26 3.3 -2.34 6.9 -3.36 10.08 c0.06 -0.06 -0.06 -0.3 0.18 -0.3 c0 0.36 -0.54 0.66 -0.06 0.84 c0.48 -1.92 0.96 -3.54 1.62 -5.22 z M6.3 42.18 c0.06 0.06 0 -0.06 0 0 l0 0 z M5.34 42.54 c0.24 0.06 0.12 -0.24 0 -0.24 c0 0.24 0.06 0.18 0 0.24 z M4.26 43.14 c0.3 0.06 0.24 -0.42 0 -0.36 c-0.12 0.12 0 0.18 0 0.36 z M15.48 42.9 c0 -0.06 -0.06 -0.06 -0.06 0 c0 0 0.06 0.12 0.06 0 z M5.1 43.2 c-0.24 0.18 0.24 0.24 0 0 l0 0 z M14.82 43.2 c-0.06 0.42 0.06 -0.24 0 0 l0 0 z M5.88 43.5 c0.06 0.3 0.06 -0.3 0 0 l0 0 z M4.92 43.92 c-0.06 0.06 -0.12 0 -0.12 0.06 c0.06 0 0.12 0 0.12 -0.06 z M4.8 44.22 c-0.12 0.24 0.24 -0.18 0 0 l0 0 z M5.58 44.22 c0 0.48 0.18 -0.24 0 0 l0 0 z M4.68 44.46 c-0.18 0.18 0.24 0.12 0 0 l0 0 z M14.7 44.52 c0 0.06 -0.06 0 0 0 l0 0 z M5.4 45.12 c0 -0.24 0.36 -0.42 0.06 -0.54 c0 0.18 -0.24 0.36 -0.06 0.54 z M4.5 45.12 c0.18 0 0.24 -0.12 0.18 -0.3 c-0.18 -0.06 -0.18 0.12 -0.18 0.3 z M4.32 45.66 c0.06 -0.06 0.3 -0.3 0.12 -0.42 c-0.06 0.12 -0.3 0.36 -0.12 0.42 z M5.1 46.08 c-0.06 -0.18 0.18 -0.36 0 -0.48 c0.06 0.3 -0.36 0.36 0 0.48 z M13.02 45.84 c0.18 0.06 0.18 -0.36 0 -0.24 l0 0.24 z M4.2 46.14 c0.06 -0.06 0.18 -0.3 0 -0.3 c0.06 0.06 -0.18 0.24 0 0.3 z M4.08 46.44 l0 0 l0 0 z M4.74 46.74 l0 0 l0 0 z M3.96 46.8 c0.12 0.3 0.12 -0.24 0 0 l0 0 z M4.62 46.98 c-0.06 0.42 0.06 -0.24 0 0 l0 0 z M11.4 47.52 c0.06 0.3 0.06 -0.3 0 0 l0 0 z M3.48 48.06 c0.18 0.12 0.18 -0.3 0.06 -0.24 c0 0.06 -0.12 0.06 -0.06 0.24 z M4.32 48.24 c0.06 -0.06 0.18 -0.36 -0.06 -0.36 c0.06 0.12 -0.06 0.36 0.06 0.36 z M4.2 48.54 l-0.12 0 l0.12 0 z M4.02 49.2 c0 -0.18 0.3 -0.48 0 -0.6 c0.06 0.24 -0.18 0.48 0 0.6 z M3.24 48.9 c0.06 0.3 0.06 -0.24 0 0 l0 0 z M3.24 49.26 c0 -0.06 -0.12 -0.06 -0.12 0 c0.06 0 0.06 0.12 0.12 0 z M3 49.56 c-0.06 0.36 0.36 0.06 0 0 l0 0 z M3.66 50.16 c0 -0.18 0.42 -0.54 0.12 -0.6 c0.06 0.3 -0.3 0.42 -0.12 0.6 z M8.4 49.74 c-0.18 0.18 0.24 -0.18 0 0 l0 0 z M2.16 50.04 c0.18 0.12 0.18 -0.3 0.06 -0.24 c0 0.06 -0.12 0.06 -0.06 0.24 z M6.78 51.24 c-0.12 0.06 0 0.12 0 0 c0.48 -0.3 1.26 -0.84 1.38 -1.38 c-0.18 0.06 -0.12 0.42 -0.42 0.24 c-0.18 0.54 -0.84 0.66 -0.96 1.14 z M3.42 50.94 c0.12 -0.06 0.24 -0.42 0.06 -0.54 c0.12 0.24 -0.3 0.36 -0.06 0.54 z M2.64 51.18 c-0.06 -0.3 0.3 -0.54 0.12 -0.72 c0 0.18 -0.36 0.48 -0.12 0.72 z M2.46 51.84 c-0.06 -0.12 0.18 -0.3 0 -0.36 c-0.06 0.06 -0.18 0.36 0 0.36 z M2.52 51.9 c0.06 0.3 0.06 -0.18 0 0 l0 0 z M2.22 52.44 c0.06 -0.06 0.18 -0.42 0 -0.42 c0.06 0.18 -0.18 0.3 0 0.42 z M1.26 52.92 c-0.06 -0.24 0.18 -0.42 0.24 -0.78 c-0.42 0 -0.36 0.48 -0.24 0.78 z M3.36 53.22 c0.18 0.12 0.24 -0.3 0.12 -0.36 c-0.06 0.18 -0.24 0.3 -0.12 0.36 z M1.68 53.16 c0 -0.12 0.18 -0.06 0.18 -0.24 c-0.18 -0.06 -0.36 0.24 -0.18 0.24 z M8.1 57.24 l0.06 0 c0.12 -0.18 -0.18 -0.18 -0.18 -0.06 c0.06 0 0.12 0 0.12 0.06 z M0.6 57.36 c0.06 0 0.24 0.18 0.24 0 c-0.12 0 -0.06 -0.18 -0.18 -0.18 c0 0.06 0 0.12 -0.06 0.18 z M8.46 57.54 c0 -0.18 0 -0.3 -0.18 -0.3 c-0.12 0.06 -0.06 0.36 0.18 0.3 z M-0.18 59.22 c0.3 -0.42 0.42 -1.44 0.54 -1.92 c-0.3 0.54 -0.66 1.56 -0.54 1.92 z M-0.12 57.42 l-0.06 0 c-0.12 0.72 -0.42 0.9 -0.42 1.74 c-0.36 0 -0.12 0.36 -0.06 0.54 c0.12 -0.18 -0.06 -0.36 0.06 -0.54 c0.24 -0.6 0.48 -1.14 0.48 -1.74 c0.06 -0.06 0 -0.06 0 0 z M0.54 57.66 c0.06 0.24 0.06 -0.3 0 0 l0 0 z M1.2 58.02 c0.18 0 0.24 -0.54 0.06 -0.48 c0.06 0.3 -0.12 0.3 -0.06 0.48 z M0.36 58.56 c0 0 0 -0.06 0.12 -0.06 c-0.06 -0.06 -0.06 -0.18 -0.18 -0.12 c0 0.06 0 0.18 0.06 0.18 z M0.78 59.34 c0.24 -0.12 0.42 -0.72 0.24 -0.96 c0 0.36 -0.24 0.54 -0.24 0.96 z M0.24 58.74 c-0.18 0.24 0.24 -0.18 0 0 l0 0 z M-0.66 60.84 c0.24 -0.36 0.54 -0.96 0.36 -1.38 c-0.12 0.54 -0.24 0.78 -0.36 1.38 z M0.72 59.88 c0.06 0 0.12 -0.36 0 -0.42 c0.06 0.18 -0.18 0.36 0 0.42 z M-0.84 59.94 c0.06 0.24 0.06 -0.24 0 0 l0 0 z M-0.84 60.48 c-0.06 -0.06 0.06 -0.36 -0.12 -0.36 c0.06 0.24 -0.18 0.3 0.12 0.36 z M-0.3 60.42 c-0.06 0.36 0.06 -0.3 0 0 l0 0 z M0.54 60.42 c-0.18 0.18 0.24 -0.18 0 0 l0 0 z M10.8 60.78 c0 -0.24 -0.24 -0.18 -0.36 -0.24 c0 0.18 0.18 0.42 0.36 0.24 z M-0.42 60.72 c0 0.48 0.18 -0.18 0 0 l0 0 z M-1.68 62.64 c0.42 0 0.06 -0.72 0.42 -0.78 c-0.24 -0.36 0.48 -0.66 0.12 -0.9 c-0.18 0.36 -0.48 1.14 -0.54 1.68 z M0.36 61.02 l-0.06 0 c-0.06 0.06 -0.18 0.36 0 0.36 c-0.06 -0.18 0.12 -0.18 0.06 -0.36 c0.12 -0.06 0 -0.12 0 0 z M-1.02 62.04 c-0.24 0.54 -0.36 1.14 -0.48 1.74 c-0.18 0.06 -0.36 0.42 0 0.36 c0.24 -0.9 0.6 -1.86 0.84 -3.06 l-0.18 0 c0.18 0.42 -0.36 0.6 -0.18 0.96 z M-0.6 61.68 c0.18 0.12 0.18 -0.3 0.06 -0.3 c0 0.12 -0.06 0.24 -0.06 0.3 z M0.06 61.92 c0.18 0 0.36 -0.54 0.12 -0.48 c-0.12 0.18 -0.12 0.36 -0.12 0.48 z M-0.54 61.98 c0 -0.06 -0.12 -0.06 -0.12 0 c0.06 0 0.06 0.12 0.12 0 z M0.06 62.04 c-0.06 0 -0.12 0 -0.12 0.06 c0.06 0 0.12 0 0.12 -0.06 z M-0.78 62.16 l0 0.18 c0.18 0.12 0.18 -0.24 0.06 -0.24 c0 0.06 0 0.12 -0.06 0.06 z M13.44 62.34 l0.06 0 l0 -0.18 l-0.06 0 l0 0.18 z M-0.6 64.38 c0 -0.06 0.06 -0.18 0 -0.24 c0 0.12 -0.12 0.18 0 0.24 z M-2.16 64.5 c0.18 0.06 0.18 -0.12 0.18 -0.24 c-0.24 -0.06 -0.12 0.24 -0.18 0.24 z M-1.74 64.38 c-0.84 2.88 -1.56 5.94 -2.1 9.18 c0.84 -3 1.32 -6.3 2.34 -9.18 l-0.24 0 z M-1.38 64.56 c0.06 0 -0.06 0 0 0 l0 0 z M-0.72 64.74 c-0.06 0.06 -0.24 0.3 -0.06 0.36 c-0.06 -0.18 0.12 -0.12 0.06 -0.36 c0.12 -0.06 0.12 -0.12 0.12 -0.24 c-0.18 -0.06 -0.12 0.12 -0.12 0.24 z M-2.34 65.04 c0.3 0 0.24 -0.42 0.06 -0.48 c0.06 0.24 0 0.3 -0.06 0.48 z M-1.62 64.92 c0.06 0 0 -0.06 0 0 l0 0 z M-2.46 65.46 c0.18 0.12 0.18 -0.24 0 -0.18 l0 0.18 z M-1.08 65.58 c0.18 0.06 0.18 -0.36 0 -0.24 l0 0.24 z M-1.74 65.82 c0.06 0.06 -0.06 0 0 0 l0 0 z M-1.2 66.3 c0.18 0 0.18 -0.18 0.18 -0.3 c-0.18 0 -0.24 0.12 -0.18 0.3 z M21.66 66.3 c0.06 0.06 -0.06 -0.06 0 0 l0 0 z M-2.64 66.6 c0.06 0.18 0.06 -0.3 0 0 l0 0 z M-1.26 66.6 c0.06 0.18 0.06 -0.3 0 0 l0 0 z M-0.84 66.66 c-0.18 0.24 0.24 -0.12 0 0 l0 0 z M-0.96 66.9 c0.12 0.24 0.18 -0.3 0 0 l0 0 z M-2.94 67.38 c0.36 0.06 0.18 -0.36 0.3 -0.48 c-0.3 0 -0.18 0.36 -0.3 0.48 z M-2.16 67.68 c0 -0.06 0.06 -0.12 0.12 -0.12 c0 -0.18 -0.06 -0.24 -0.12 -0.3 c0.06 0.18 -0.24 0.36 0 0.42 z M-2.94 68.28 c0 -0.18 -0.12 -0.18 0 -0.3 c-0.18 -0.06 -0.18 0.42 0 0.3 z M-3.18 68.64 c0.18 0.12 0.18 -0.24 0.06 -0.24 c0 0.12 -0.06 0.18 -0.06 0.24 z M-0.84 69.06 c0.06 0.24 0.06 -0.24 0 0 l0 0 z M-3.24 69.06 c-0.06 0.36 0.3 0.06 0 0 l0 0 z M-1.14 71.7 c0 -0.12 0 -0.18 0.06 -0.3 c-0.18 0 -0.24 0.3 -0.06 0.3 z M-3.9 71.64 l0 0.12 c0.12 0.12 0.18 -0.24 0.06 -0.18 z M-2.04 72.96 c0 -0.06 0 -0.06 0.06 -0.06 c0 -0.12 0 -0.18 -0.12 -0.18 c0 0.12 0 0.24 0.06 0.24 z M-2.52 73.38 c0.12 0.06 0.18 0 0.18 -0.12 c-0.12 0 -0.18 0.06 -0.18 0.12 z M-2.46 73.62 c-0.12 0.24 0.24 -0.18 0 0 l0 0 z M26.1 30.54 c-0.12 0.36 -0.24 0.66 -0.54 0.84 c0.06 -0.3 0.3 -0.54 0.48 -0.84 l0.06 0 z M25.56 31.38 c-0.12 0.3 -0.18 0.48 -0.42 0.6 c0.12 -0.18 0.12 -0.54 0.42 -0.6 z M25.14 31.98 c-0.24 0.6 -0.6 1.02 -0.9 1.56 c0 -0.54 0.54 -1.08 0.9 -1.56 z M24 33.72 l0 0 c0.06 0.06 -0.06 0 0 0 z M23.76 34.02 c0.24 -0.18 -0.18 0.24 0 0 l0 0 z M23.4 34.62 l0 0 c0.06 0.06 -0.06 0 0 0 z M23.34 34.74 l0 0 c0.06 0.06 -0.06 0 0 0 z M18 37.56 c-0.12 0.3 -0.42 0.78 -0.66 0.72 c0.12 -0.3 0.24 -0.6 0.66 -0.72 z M16.8 39 c0 -0.3 0.24 -0.42 0.54 -0.48 c-0.12 0.18 -0.3 0.42 -0.54 0.48 z M3.78 44.16 c-0.12 -0.3 0.12 -0.36 0.12 -0.6 c0.18 0.06 -0.06 0.42 -0.12 0.6 z M2.94 46.5 c0.06 0.78 -0.42 1.8 -0.78 2.7 c0.06 -0.9 0.54 -1.92 0.78 -2.7 z M1.5 51.18 c0.06 0.06 0.06 0.18 0 0.3 c-0.12 0 -0.06 -0.24 -0.06 -0.3 l0.06 0 z M10.74 57.96 c-0.06 0.24 0.06 0.24 0.06 0.48 c-0.24 0.06 -0.3 -0.12 -0.54 -0.06 c0.12 -0.18 -0.12 -0.36 0 -0.36 c0.12 -0.12 0.3 -0.12 0.48 -0.06 z M12.24 59.4 c0.06 -0.12 -0.06 -0.18 -0.06 -0.24 c-0.12 0 0.06 0.3 -0.12 0.18 c-0.06 -0.18 0.06 -0.12 0.06 -0.3 c-0.24 -0.06 -0.3 0.06 -0.42 0.06 c-0.06 -0.06 -0.12 -0.18 -0.12 -0.36 c-0.12 0.06 -0.24 0.12 -0.42 0.12 c-0.12 -0.06 0 -0.3 -0.3 -0.24 c0.12 -0.06 0 -0.24 0.18 -0.24 c0.24 0 -0.06 0.12 0.12 0.18 c0.54 -0.3 1.02 0.54 1.62 0.6 c0.06 0.18 -0.06 0.12 -0.06 0.24 c-0.3 0.06 -0.36 -0.12 -0.48 0 z M4.98 58.62 l0 0 c0.06 0 0 -0.06 0 0 z M10.86 58.62 c0.06 0.3 -0.12 0 0 0 l0 0 z M11.82 59.22 c0.24 -0.12 -0.18 0.18 0 0 l0 0 z M12.24 59.4 l0 0 c-0.06 0.06 0 0.12 0 0 z M12.9 59.46 l0 0 c0.06 0.06 0 0 0 0 z M13.08 59.46 c0.24 0.18 0.3 0.06 0.42 0.24 c0.06 0.18 -0.06 0.18 -0.06 0.3 c-0.24 -0.12 -0.3 -0.3 -0.36 -0.54 z M12.6 59.76 l0 0 c0.06 0.06 0 0 0 0 z M13.68 59.7 c0.24 0.18 0.48 0.24 0.66 0.48 c-0.24 0.06 -0.24 0.12 -0.54 0.18 c0.06 -0.36 -0.18 -0.42 -0.12 -0.66 z M14.4 60.18 c0.24 0.06 0.36 0.06 0.36 0.3 c-0.06 0.06 -0.36 -0.06 -0.36 -0.3 z M14.88 60.42 c0.24 0 0.24 0.36 -0.06 0.3 c0 -0.18 0 -0.24 0.06 -0.3 z M15.24 60.66 c0.42 0.3 1.14 0.24 1.14 0.96 c-0.3 -0.36 -1.38 -0.12 -1.14 -0.96 z M14.82 61.02 c0.18 -0.06 0.18 0.12 0.24 0.24 c-0.12 -0.06 -0.3 -0.06 -0.24 -0.24 z M16.5 61.44 c0.3 0.06 0.24 0.36 0.24 0.48 l-0.24 0 l0 -0.48 z M16.98 61.62 c0.42 0.48 1.26 1.02 1.8 1.32 c0.18 0.12 0.24 0.3 0.06 0.48 c-0.06 -0.12 -0.3 -0.3 -0.3 0 c-0.12 0 0.06 -0.36 -0.24 -0.24 c0 -0.18 -0.18 -0.18 -0.12 -0.42 c-0.24 -0.06 -0.12 0.3 -0.36 0.3 c0.18 -0.36 -0.18 -0.18 -0.12 -0.6 c-0.24 -0.06 -0.06 0.18 -0.24 0.12 c0 -0.54 -0.9 -0.54 -0.48 -0.96 z M14.76 63.36 c0.12 -0.18 0.18 0.3 0 0 l0 0 z M16.2 64.26 l0 0 c0.06 0 0 -0.06 0 0 z M16.74 64.5 c0.06 0 0.06 0.18 0.24 0.12 c-0.06 0.06 -0.12 0.12 -0.12 0.18 c-0.06 -0.06 -0.18 -0.12 -0.12 -0.3 z M16.98 64.8 c0 -0.06 0.18 -0.06 0.24 -0.06 l0 0.24 c-0.18 0.06 -0.18 -0.12 -0.24 -0.18 z M17.34 64.98 l0.12 0 l0 0.24 c-0.06 0 -0.18 -0.06 -0.12 -0.24 z M17.82 65.4 c-0.18 0.06 -0.24 -0.06 -0.18 -0.24 c0.18 0 0.18 0.06 0.18 0.24 z M17.82 65.4 c0.12 0 0.12 -0.06 0.24 -0.06 c0.06 0.24 -0.12 0.24 -0.24 0.12 l0 -0.06 z"></path></g><g id="SvgjsG1239" featureKey="nameFeature-0" transform="matrix(1.5090693332033838,0,0,1.5090693332033838,-5.511639947442046,244.93878067838028)" fill="url(#SvgjsLinearGradient1253)"><path d="M20.351563 40 l-8.769531 -11.992187 l-2.070312 0 l0 11.992188 l-5.859375 0 l0 -28.222656 l5.859375 0 l0 11.09375 l1.992188 0 l8.847656 -11.09375 l7.148438 0 l-10.9375 13.496094 l11.269531 14.726563 l-7.480469 0 z M43.642578 11.933594 l-4.433594 5.234375 l-3.457031 0 l5.117188 -7.1875 z M45.830078 34.550781 c0 2.460938 0.234375 4.023438 0.488281 4.902344 l0 0.546875 l-5.253906 0 l-0.449219 -2.1875 c-1.503906 1.816406 -4.101562 2.578125 -6.445312 2.578125 c-3.164062 0 -6.25 -1.40625 -6.25 -5.585937 c0 -4.160156 3.105469 -5.566406 7.304688 -6.484375 l3.300781 -0.742187 c1.425781 -0.332031 1.933594 -0.820312 1.933594 -1.640625 c0 -1.972656 -1.796875 -2.519531 -3.378906 -2.519531 c-2.03125 0 -3.574219 0.800781 -3.925781 3.066406 l-4.980469 -0.898437 c0.839844 -4.160156 3.886719 -6.054687 9.21875 -6.054687 c4.023438 0 8.4375 1.191406 8.4375 7.246094 l0 7.773438 z M35.927734 36.582031 c2.675781 0 4.824219 -1.777344 4.824219 -5.761719 l-4.765625 1.347656 c-1.5625 0.371094 -2.695312 0.917969 -2.695312 2.265625 c0 1.445313 1.191406 2.148438 2.636719 2.148438 z M56.445313 40.390625 c-4.511719 0 -8.007812 -1.777344 -8.730469 -5.585937 l4.707031 -1.328125 c0.605469 2.148438 2.128906 2.988281 4.023438 2.988281 c1.386719 0 2.890625 -0.429687 2.851563 -2.011719 c-0.019531 -2.089844 -3.183594 -2.265625 -6.367187 -3.398437 c-2.402344 -0.839844 -4.707031 -2.128906 -4.707031 -5.507812 c0 -4.121094 3.417969 -6.015625 7.871094 -6.015625 c3.90625 0 7.167969 1.484375 7.949219 5.3125 l-4.355469 0.976563 c-0.605469 -1.875 -1.933594 -2.539062 -3.574219 -2.539062 c-1.484375 0 -2.753906 0.527344 -2.753906 1.777344 c0 1.582031 2.324219 1.894531 4.84375 2.578125 c3.105469 0.839844 6.503906 2.1875 6.503906 6.484375 c0 4.609375 -3.925781 6.269531 -8.261719 6.269531 z M83.291016 34.550781 c0 2.460938 0.234375 4.023438 0.488281 4.902344 l0 0.546875 l-5.253906 0 l-0.449219 -2.1875 c-1.503906 1.816406 -4.101562 2.578125 -6.445312 2.578125 c-3.164062 0 -6.25 -1.40625 -6.25 -5.585937 c0 -4.160156 3.105469 -5.566406 7.304688 -6.484375 l3.300781 -0.742187 c1.425781 -0.332031 1.933594 -0.820312 1.933594 -1.640625 c0 -1.972656 -1.796875 -2.519531 -3.378906 -2.519531 c-2.03125 0 -3.574219 0.800781 -3.925781 3.066406 l-4.980469 -0.898437 c0.839844 -4.160156 3.886719 -6.054687 9.21875 -6.054687 c4.023438 0 8.4375 1.191406 8.4375 7.246094 l0 7.773438 z M73.388672 36.582031 c2.675781 0 4.824219 -1.777344 4.824219 -5.761719 l-4.765625 1.347656 c-1.5625 0.371094 -2.695312 0.917969 -2.695312 2.265625 c0 1.445313 1.191406 2.148438 2.636719 2.148438 z M98.691406 19.53125 c4.824219 0 7.480469 2.5 7.480469 6.953125 l0 13.515625 l-5.644531 0 l0 -12.304687 c0 -2.675781 -1.660156 -3.652344 -3.59375 -3.652344 c-2.324219 0 -4.433594 1.171875 -4.472656 4.882813 l0 11.074219 l-5.625 0 l0 -20.078125 l5.625 0 l0 2.226563 c1.40625 -1.660156 3.574219 -2.617187 6.230469 -2.617187 z M123.017578 40 l-6.464844 -8.4375 l-1.171875 0 l0 8.4375 l-5.683594 0 l0 -30 l5.683594 0 l0 17.65625 l1.054688 0 l6.308594 -7.734375 l6.367188 0 l-7.910156 9.316406 l8.652344 10.761719 l-6.835937 0 z M147.265625 34.550781 c0 2.460938 0.234375 4.023438 0.488281 4.902344 l0 0.546875 l-5.253906 0 l-0.449219 -2.1875 c-1.503906 1.816406 -4.101562 2.578125 -6.445312 2.578125 c-3.164062 0 -6.25 -1.40625 -6.25 -5.585937 c0 -4.160156 3.105469 -5.566406 7.304688 -6.484375 l3.300781 -0.742187 c1.425781 -0.332031 1.933594 -0.820312 1.933594 -1.640625 c0 -1.972656 -1.796875 -2.519531 -3.378906 -2.519531 c-2.03125 0 -3.574219 0.800781 -3.925781 3.066406 l-4.980469 -0.898437 c0.839844 -4.160156 3.886719 -6.054687 9.21875 -6.054687 c4.023438 0 8.4375 1.191406 8.4375 7.246094 l0 7.773438 z M137.363281 36.582031 c2.675781 0 4.824219 -1.777344 4.824219 -5.761719 l-4.765625 1.347656 c-1.5625 0.371094 -2.695312 0.917969 -2.695312 2.265625 c0 1.445313 1.191406 2.148438 2.636719 2.148438 z M150.810547 40 l0 -30 l5.683594 0 l0 30 l-5.683594 0 z M176.855469 34.550781 c0 2.460938 0.234375 4.023438 0.488281 4.902344 l0 0.546875 l-5.253906 0 l-0.449219 -2.1875 c-1.503906 1.816406 -4.101562 2.578125 -6.445312 2.578125 c-3.164062 0 -6.25 -1.40625 -6.25 -5.585937 c0 -4.160156 3.105469 -5.566406 7.304688 -6.484375 l3.300781 -0.742187 c1.425781 -0.332031 1.933594 -0.820312 1.933594 -1.640625 c0 -1.972656 -1.796875 -2.519531 -3.378906 -2.519531 c-2.03125 0 -3.574219 0.800781 -3.925781 3.066406 l-4.980469 -0.898437 c0.839844 -4.160156 3.886719 -6.054687 9.21875 -6.054687 c4.023438 0 8.4375 1.191406 8.4375 7.246094 l0 7.773438 z M166.953125 36.582031 c2.675781 0 4.824219 -1.777344 4.824219 -5.761719 l-4.765625 1.347656 c-1.5625 0.371094 -2.695312 0.917969 -2.695312 2.265625 c0 1.445313 1.191406 2.148438 2.636719 2.148438 z"></path></g><g id="SvgjsG1240" featureKey="sloganFeature-0" transform="matrix(0.8338633806432221,0,0,0.8338633806432221,1.3329093352471268,322.5811645926737)" fill="url(#SvgjsLinearGradient1257)"><path d="M6.78 20.3 c-1.68 0 -3.1 -0.52 -4.24 -1.56 c-1.16 -1.04 -1.74 -2.54 -1.74 -4.52 l0 -2.4 l4 0 l0 2.34 c0 1.52 0.66 2.28 1.98 2.28 c0.64 0 1.12 -0.16 1.46 -0.5 c0.34 -0.32 0.5 -0.92 0.5 -1.78 l0 -9.76 l3.98 0 l0 9.82 c0 1.98 -0.56 3.5 -1.66 4.52 c-1.12 1.04 -2.54 1.56 -4.28 1.56 z M24.7455 20 c-2.26 0 -4.02 -0.64 -5.28 -1.96 c-1.26 -1.3 -1.88 -2.96 -1.88 -5.02 l0 -8.62 l4 0 l0 8.38 c0 1.12 0.26 1.96 0.8 2.54 c0.54 0.6 1.32 0.9 2.36 0.9 s1.84 -0.3 2.38 -0.9 c0.54 -0.58 0.82 -1.42 0.82 -2.54 l0 -8.38 l3.98 0 l0 8.62 c0 2.04 -0.64 3.7 -1.9 5.02 s-3.02 1.96 -5.28 1.96 z M36.791 20 l0 -15.6 l3.4 0 l6.96 8.72 l0 -8.72 l3.98 0 l0 15.6 l-3.38 0 l-6.96 -8.7 l0 8.7 l-4 0 z M64.2765 20.3 c-2.26 0 -4.2 -0.8 -5.82 -2.38 c-1.64 -1.58 -2.46 -3.5 -2.46 -5.72 s0.82 -4.14 2.46 -5.72 c1.62 -1.58 3.56 -2.38 5.82 -2.38 c2.28 0 4.24 0.8 5.86 2.38 c1.22 1.18 1.98 2.56 2.26 4.1 l-4.18 0 c-0.2 -0.52 -0.52 -1 -0.92 -1.4 c-0.82 -0.82 -1.82 -1.22 -3.02 -1.22 c-1.18 0 -2.18 0.42 -3 1.24 s-1.24 1.82 -1.24 3 s0.42 2.18 1.24 3 s1.82 1.24 3 1.24 c1.2 0 2.2 -0.42 3.02 -1.24 l0.24 -0.26 l-3.8 0 l0.02 -3.02 l8.72 0 l0 1.36 c-0.22 1.78 -0.98 3.32 -2.34 4.64 c-1.62 1.58 -3.58 2.38 -5.86 2.38 z M77.342 20 l0 -15.6 l3.98 0 l0 11.74 l7.48 0 l0 3.86 l-11.46 0 z M93.6675 20 l0 -15.6 l11.98 0 l0 3.88 l-7.98 0 l0 2.24 l5.62 0 l0 3.62 l-5.62 0 l0 2 l7.98 0 l0 3.86 l-11.98 0 z M125.9785 20.3 c-1.62 0 -2.9 -0.44 -3.82 -1.3 s-1.38 -1.88 -1.38 -3.1 c0 -0.94 0.28 -1.72 0.84 -2.36 c0.56 -0.62 1.36 -1.24 2.42 -1.84 c-0.82 -1.1 -1.22 -2.16 -1.22 -3.2 c0 -1.22 0.48 -2.26 1.42 -3.12 s2.04 -1.28 3.34 -1.28 c1.28 0 2.38 0.4 3.3 1.22 s1.38 1.82 1.38 2.98 c0 1.5 -0.9 2.78 -2.72 3.84 l1.68 1.82 c0.92 -0.74 1.7 -1.44 2.34 -2.08 l2.82 2.7 c-0.86 0.84 -1.7 1.58 -2.52 2.24 l2.94 3.18 l-5.1 0 l-0.98 -1.06 c-1.66 0.9 -3.24 1.36 -4.74 1.36 z M127.3785 9.86 c0.9 -0.54 1.34 -1.04 1.34 -1.48 c0 -0.26 -0.1 -0.48 -0.32 -0.66 s-0.48 -0.26 -0.76 -0.26 c-0.3 0 -0.54 0.1 -0.76 0.3 s-0.34 0.44 -0.34 0.7 c0 0.34 0.28 0.8 0.84 1.4 z M126.0585 16.64 c0.54 0 1.2 -0.18 1.98 -0.56 l-1.96 -2.12 c-0.88 0.56 -1.32 1.1 -1.32 1.64 c0 0.3 0.12 0.56 0.36 0.74 c0.22 0.2 0.54 0.3 0.94 0.3 z M158.5695 20.3 c-1.94 0 -3.52 -0.42 -4.76 -1.28 s-1.86 -2.02 -1.86 -3.52 l0 -0.18 l-0.02 -0.8 l3.92 0 l0 0.9 c0 0.34 0.24 0.66 0.7 0.96 s1.1 0.46 1.94 0.46 c0.7 0 1.2 -0.1 1.52 -0.28 c0.3 -0.18 0.46 -0.42 0.46 -0.68 c0 -0.32 -0.2 -0.6 -0.58 -0.84 c-0.4 -0.24 -1.1 -0.52 -2.08 -0.86 c-0.62 -0.22 -1.14 -0.4 -1.56 -0.56 s-0.92 -0.4 -1.5 -0.72 c-0.58 -0.3 -1.06 -0.64 -1.4 -0.98 s-0.64 -0.76 -0.9 -1.28 s-0.38 -1.08 -0.38 -1.7 c0 -1.46 0.56 -2.64 1.7 -3.52 s2.6 -1.32 4.4 -1.32 c1.86 0 3.38 0.46 4.58 1.38 s1.8 2.14 1.8 3.66 l0 0.98 l-3.9 0 l0 -0.9 c0 -0.42 -0.2 -0.82 -0.62 -1.16 s-1.02 -0.5 -1.78 -0.5 c-0.62 0 -1.1 0.1 -1.42 0.3 c-0.32 0.22 -0.48 0.46 -0.48 0.76 s0.18 0.54 0.54 0.74 c0.36 0.22 1.04 0.5 2.04 0.84 l1.02 0.36 l1.08 0.44 c0.46 0.22 0.84 0.4 1.12 0.58 s0.6 0.42 0.98 0.72 s0.66 0.62 0.88 0.92 c0.2 0.3 0.38 0.68 0.54 1.1 c0.14 0.42 0.22 0.88 0.22 1.34 c0 1.48 -0.58 2.62 -1.72 3.42 c-1.14 0.82 -2.64 1.22 -4.48 1.22 z M169.635 20 l0 -15.6 l11.98 0 l0 3.88 l-7.98 0 l0 2.24 l5.62 0 l0 3.62 l-5.62 0 l0 2 l7.98 0 l0 3.86 l-11.98 0 z M186.4805 20 l6.32 -15.6 l3.96 0 l6.3 15.6 l-4.36 0 l-1.26 -3.48 l-5.3 0 l-1.3 3.48 l-4.36 0 z M193.3805 13.28 l2.78 -0.02 l-1.38 -3.74 z M218.1915 20 l0 -15.6 l7.24 0 c1.58 0 2.92 0.36 4.06 1.08 s1.98 1.66 2.52 2.82 s0.8 2.46 0.8 3.9 c0 1.46 -0.26 2.76 -0.8 3.92 s-1.38 2.1 -2.52 2.8 c-1.14 0.72 -2.48 1.08 -4.06 1.08 l-7.24 0 z M222.1915 16.14 l2.94 0 c1.16 0 2.06 -0.36 2.7 -1.08 c0.62 -0.7 0.94 -1.66 0.94 -2.86 s-0.32 -2.16 -0.94 -2.86 c-0.64 -0.7 -1.54 -1.06 -2.7 -1.06 l-2.94 0 l0 7.86 z M237.677 20 l0 -15.6 l4 0 l0 15.6 l-4 0 z M246.5425 20 l0 -15.6 l3.4 0 l6.96 8.72 l0 -8.72 l3.98 0 l0 15.6 l-3.38 0 l-6.96 -8.7 l0 8.7 l-4 0 z M265.748 20 l0 -15.6 l4 0 l0 15.6 l-4 0 z M274.6135 20 l0 -15.6 l3.4 0 l6.96 8.72 l0 -8.72 l3.98 0 l0 15.6 l-3.38 0 l-6.96 -8.7 l0 8.7 l-4 0 z M302.099 20.3 c-2.26 0 -4.2 -0.8 -5.82 -2.38 c-1.64 -1.58 -2.46 -3.5 -2.46 -5.72 s0.82 -4.14 2.46 -5.72 c1.62 -1.58 3.56 -2.38 5.82 -2.38 c2.28 0 4.24 0.8 5.86 2.38 c1.22 1.18 1.98 2.56 2.26 4.1 l-4.18 0 c-0.2 -0.52 -0.52 -1 -0.92 -1.4 c-0.82 -0.82 -1.82 -1.22 -3.02 -1.22 c-1.18 0 -2.18 0.42 -3 1.24 s-1.24 1.82 -1.24 3 s0.42 2.18 1.24 3 s1.82 1.24 3 1.24 c1.2 0 2.2 -0.42 3.02 -1.24 l0.24 -0.26 l-3.8 0 l0.02 -3.02 l8.72 0 l0 1.36 c-0.22 1.78 -0.98 3.32 -2.34 4.64 c-1.62 1.58 -3.58 2.38 -5.86 2.38 z"></path></g>
			</g>
		</svg>
	